<!--?xml version="1.0" encoding="utf-8"?-->
<!-- Generator: Adobe Illustrator 22.1.0, SVG Export Plug-In . SVG Version: 6.00 Build 0)  -->
<svg version="1.1" id="_x31_9" xmlns="http://www.w3.org/2000/svg" xmlns:xlink="http://www.w3.org/1999/xlink" x="0px" y="0px" viewBox="0 0 172 720" style="enable-background:new 0 0 172 720;" xml:space="preserve">
<style type="text/css">
	.st0{fill:#455291;}
	.st1{fill:#A86436;}
	.st2{fill:#572A14;}
	.st3{fill:#4A5796;}
	.st4{fill:#3F4D80;}
	.st5{fill:#4F5C9B;}
	.st6{fill:#E4E4E4;}
	.st7{fill:#F3A66F;}
	.st8{fill:#E62722;}
	.st9{fill:#E49656;}
	.st10{fill:#FFFFFF;}
	.st11{fill:#6370AF;}
	.st12{fill:#663923;}
</style>
<g>
	<path class="st0" d="M0.515,243.146c0,0,25.366-92.539,30.363-100.383c4.997-7.844,12.486-19.002,25.817-14.314
		c13.332,4.687-36.401,128.688-37.824,129.401C17.448,258.563,0.515,243.146,0.515,243.146z" style="opacity: 1;"></path>
	<path class="st1" d="M37.56,335.71c0.11,0.417,0.155,0.825,0.128,1.256c-0.289,4.743-2.051,36.222-1.05,83.396
		c0.931,43.832,1.861,55.781,2.112,58.328c0.039,0.401,0.021,0.768-0.06,1.163c-0.431,2.086-1.724,9.641,0.126,17.982
		c2.177,9.82,10.795,97.074,7.529,110.168c-0.302,1.211,0.674,14.37-14.281,26.117c-6.82,5.357-16.364,14.366-21.8,18.329
		c-6.786,4.946-1.33,10.646,0.393,12.739c5.613,6.819,56.174-28.676,60.613-29.448c6.448-1.121,2.972-23.746,2.688-30.487
		c-1.085-25.745,10.612-57.875,7.794-102.617c-0.022-0.343-0.053-0.693-0.009-1.034c7.23-56.023,8.217-83.423,8.289-85.695
		c0.004-0.112,0.002-0.206-0.004-0.317l-4.204-83.82c-0.107-2.14-1.87-3.821-4.008-3.821H40.721c-2.636,0-4.556,2.503-3.879,5.056
		L37.56,335.71z" style="opacity: 1;"></path>
	<g>
		<path class="st2" d="M74.204,602.256c3.233,3.19,3.992,28.344,1.5,31.516c-2.492,3.172-11.276,6.392-20.03,13.396
			c-8.754,7.004-25.029,17.848-38.226,19.842c-13.197,1.993-16.603-5.486-17.068-10.588c-0.444-4.87,8.623-10.123,10.275-11.037
			c0.182-0.101,0.334-0.199,0.499-0.326c2.338-1.812,21.041-16.591,31.663-33.733c2.829-4.566,9.544-0.239,15.508,1.462
			c2.566,0.732,1.951,6.191,4.907,5.32C76.39,614.229,71.882,599.964,74.204,602.256z" style="opacity: 1;"></path>
	</g>
	<path class="st1" d="M152.812,433.978c15.07-59.262,5.728-86.617,4.623-93.333c-0.117-0.709-0.384-1.367-0.84-1.922
		c-20.861-25.355-87.039-20.56-88.834-2.568c-1.5,15.032,1.442,55.47,2.514,69.128c0.228,2.906,1.701,5.57,4.036,7.308l6.504,4.842
		c0.882,0.656,6.972,1.666,7.105,2.759c6.945,57.165,12.984,82.553,14.853,87.492c0.217,0.573,0.3,1.154,0.237,1.763
		c-0.232,2.246-0.388,9.015,3.756,21.004c8.376,24.231,18.479,89.44,19.108,121.623c0.012,0.635,1.103,11.975-4.9,20.038
		c-8.245,11.074-23.925,22.433-32.17,29.067c-0.219,0.176-0.385,0.414-0.576,0.622c-0.853,0.721-2.5,1.982-4.927,3.255
		c-1.982,1.041-0.593,6.472,3.013,6.883c0.107,0.267,0.222,0.514,0.361,0.666c14.801,16.234,47.541-18.952,63.763-27.679
		c12.429-6.685,4.402-23.989,3.948-29.725c-2.565-32.421-0.133-48.14,0.965-67.1c1.426-24.609-2.022-47.147-3.839-55.341
		c-1.809-8.158-1.649-48.85,1.19-97.504C152.728,434.831,152.707,434.392,152.812,433.978z" style="opacity: 1;"></path>
	<g>
		<path class="st2" d="M155.644,651.491c3.403,3.358,4.202,29.836,1.579,33.175c-2.623,3.339-11.869,6.729-21.084,14.101
			s-26.347,18.788-40.238,20.886c-13.892,2.098-17.477-5.775-17.967-11.145c-0.469-5.143,9.14-10.692,10.833-11.628
			c0.182-0.101,0.328-0.195,0.493-0.322c2.395-1.855,22.14-17.438,33.344-35.52c2.978-4.806,10.047-0.252,16.325,1.539
			c2.701,0.77,2.053,6.517,5.165,5.599C157.945,664.094,153.199,649.078,155.644,651.491z" style="opacity: 1;"></path>
	</g>
	<path class="st3" d="M155.698,539.241c0.581,8.817,3.403,123.942,3.403,123.942c-10.458,11.063-36.745,3.794-37.326-7.852
		c-0.581-11.673-17.379-122.373-18.541-127.059c-1.19-4.658-13.188-92.843-13.188-92.843s-4.869,51.352-7.027,70.927
		c-0.47,4.215-4.731,94.496-5.506,109.053c-0.581,11.119-32.258,1.608-32.674-7.209c-1.051-22.348-7.138-106.917-8.3-134.312
		c-1.992-19.908-0.996-78.607-0.166-113.739c0.387-16.276,0.747-27.506,0.747-27.506c14.497,12.921,34.223,21.739,53.506,27.755
		c34.389,10.702,67.478,12.477,67.478,12.477c1.162,4.159,1.936,8.124,2.352,12.061c1.494,13.725-1.051,27.062-4.676,46.998
		C154.758,437.564,155.034,529.592,155.698,539.241z" style="opacity: 1; stroke: none; stroke-width: 7px;"></path>
	<path class="st4" d="M160.457,384.936c-0.554,0.25-1.134,0.499-1.715,0.804c-3.791,1.803-8.577,3.189-14.276,4.131l-0.526,0.083
		c-5.644,0.887-11.924,1.359-18.73,1.359c-10.928,0-22.437-1.192-33.31-3.438c-5.201-1.081-9.545-4.686-11.62-9.649
		c-0.332-0.749-0.636-1.497-0.94-2.191c-1.826,3.05-5.174,5.019-8.881,5.019c-1.356,0-2.684-0.25-3.956-0.776
		c-12.671-5.268-22.769-12.006-30.128-20.13c0.387-16.276,0.747-27.506,0.747-27.506c14.497,12.921,34.223,21.739,53.506,27.755
		c34.389,10.702,67.478,12.477,67.478,12.477C159.267,377.035,160.042,380.999,160.457,384.936z" style="opacity: 1;"></path>
	<path class="st5" d="M170.309,211.898c-0.028,4.408-0.111,9.067-0.194,13.919c-0.996,51.739-4.011,125.8-4.371,147.538
		c0,0.638-0.055,1.22-0.166,1.775c-0.055,0.305-0.138,0.582-0.193,0.859c-1.246,4.159-5.45,5.49-10.237,7.792
		c-3.071,1.47-7.193,2.634-12.034,3.438l-0.498,0.083c-12.81,2.024-31.014,1.692-49.052-2.024c-2.546-0.527-4.648-2.329-5.644-4.714
		c-4.344-10.453-9.019-20.102-10.237-19.493c-1.245,0.582-3.32,7.957-5.201,15.61c-0.304,1.248-1.632,1.941-2.794,1.442
		c-14.22-5.906-26.504-14.529-33.42-26.48c-2.352-4.076-5.34-5.878-4.565-12.311l1.936-34.16c0.028-0.194,0.028-9.4,0.028-9.622
		l-0.525-32.136l-0.222-13.171l-1.522-90.781c0-17.385,0.858-26.008,20.113-36.184c3.403-1.802,11.177-5.407,16.434-7.431
		c0.193-0.083,0.387-0.166,0.553-0.221c1.383-0.554,2.573-0.971,3.403-1.165c18.398-4.575,28.69-8.484,43.768,2.773
		c2.434,1.803,4.703,3.466,6.833,5.047c0.692,0.527,1.356,0.998,2.02,1.497c0.387,0.278,0.747,0.527,1.106,0.804
		c9.822,7.126,16.904,12.061,24.125,18.078c13.916,11.618,17.983,22.847,19.726,31.609
		C170.364,178.736,170.558,192.932,170.309,211.898z" style="opacity: 1;"></path>
	<path class="st0" d="M43.06,241.924c0.871-1.409,12.878-46.635,12.878-46.635l-26.623,11.263l-4.748,31.537L43.06,241.924z" style="opacity: 1;"></path>
	<path class="st0" d="M170.309,211.898c-0.028,4.408-0.111,9.067-0.194,13.919c-1.716,10.647-4.067,24.705-4.786,25.759
		c-1.162,1.747-11.592,48.218-14.497,51.712c-2.905,3.494-21.441,5.795-29.271,2.329c-7.857-3.494-66.952-25.565-73.066-29.641
		c-6.142-4.048-15.355-12.56-15.355-12.56l-0.222-13.171l5.616-6.905l82.224,29.752l35.302-77.804L170.309,211.898z" style="opacity: 1;"></path>
	<path class="st6" d="M124.509,123.771c-12.837,12.976-26.255,39.873-36.796,58.727c-1.798,3.272-9.739,18.744-15.88,30.473
		c-3.79,7.292-6.917,13.142-7.414,13.697c-1.411,1.497-2.739-9.982-3.541-19.049c-0.277-3.077-0.47-5.906-0.609-7.819
		c-1.605-22.737,0.359-62.332,11.62-85.346c18.398-4.575,28.69-8.484,43.768,2.773c2.434,1.803,4.703,3.466,6.833,5.047
		C123.181,122.8,123.845,123.272,124.509,123.771z" style="opacity: 1;"></path>
	<path class="st7" d="M120.771,93.416v27.523c0,0.839-0.25,1.642-0.737,2.324c-2.657,3.717-12.164,16.365-23.008,23.027
		c-9.385,5.766-21.716,1.751-21.716-8.681c0-3.551,0.642-20.919,0.728-26.137c0.016-0.965,0.374-1.882,1.015-2.603l17.904-20.158
		c0.862-0.97,2.139-1.464,3.428-1.325l18.802,2.029C119.225,89.636,120.771,91.361,120.771,93.416z" style="opacity: 1;"></path>
	<path class="st7" d="M124.75,70.707l0.59-4.729c3.606-23.885-2.416-41.974-29.8-48.835c-16.514-4.138-35.84,6.861-42.283,21.39
		c-2.668,6.016-4.582,14.841-3.896,21.388l2.323,22.175c1.945,26.121,13.728,40.625,28.397,42.494
		c18.278,2.329,25.93-5.338,35.191-19.868c0.958-1.503,3.52-5.571,5.422-10.187c3.616-2.78,6.798-12.194,7.411-17.418
		C128.47,74.013,126.851,71.747,124.75,70.707z" style="opacity: 1;"></path>
	<path class="st6" d="M80.465,141.087c-3.87,0.705-3.87-9.168-5.271-14.934c0,0-3.675,8.595-0.919,18.111
		c1.947,6.723,9.801,10.744,9.801,10.744s10.705-6.769,18.892-11.224c10.72-5.832,18.475-19.473,18.475-19.473l0.109-12.362
		l-0.336-0.674C119.646,114.871,101.905,132.186,80.465,141.087z" style="opacity: 1;"></path>
	<path class="st8" d="M80.728,148.337c0.106-0.532-0.849-6.378-0.849-6.697c0-0.319-4.772-1.063-5.09-1.063
		s-2.652,5.846-2.652,5.846s0.207,1.627,0.815,1.891c-2.865,10.338-8.486,38.066-12.075,59.304
		c0.802,9.067,2.13,20.547,3.541,19.049c0.498-0.555,3.624-6.405,7.414-13.697c2.782-23.591,6.745-56.578,7.584-63.558
		C79.893,149.157,80.654,148.704,80.728,148.337z" style="opacity: 1;"></path>
	<path class="st9" d="M52.514,243.332" style="opacity: 1;"></path>
	<path class="st9" d="M52.514,243.332" style="opacity: 1;"></path>
	<path class="st9" d="M50.706,242.88l-4.753-0.956c0,0,0.267-7.747-5.66-8.938c-5.926-1.191-12.462,13.994-10.68,18.758
		c1.782,4.764,8.021,9.992,14.557,10.653S50.706,242.88,50.706,242.88z" style="opacity: 1;"></path>
	<path class="st10" d="M63.942,245.258l-9.871-3.063c-2.386-0.74-4.973,0.072-6.571,1.996c-8.05,9.692-2.693,19.71-2.693,19.71
		s4.681,1.852,11.573,4.561C59.104,259.925,62.267,250.11,63.942,245.258z" style="opacity: 1;"></path>
	<path class="st5" d="M171.996,190.824c-0.249,30.75-19.864,89.588-24.402,98.683c-5.173,10.398-16.35,11.979-23.959,9.095
		c-2.434-0.915-72.237-29.225-72.237-29.225s-5.948-11.119,2.988-21.905c0.636-0.776,1.411-1.747,2.269-2.635
		c1.522-1.608,3.32-2.994,5.035-2.467l56.743,18.938c0,0,10.07-55.261,13.695-67.129c3.845-12.616,7.719-20.601,13.086-24.123
		c0-0.028,0-0.028,0-0.028c2.517-1.663,5.367-2.384,8.687-2.135c0.609,0.056,2.38-0.056,2.96,0
		C166.768,169.086,172.162,171.194,171.996,190.824z" style="opacity: 1;"></path>
	<path class="st5" d="M32.664,185.316c-0.075,0.126-0.148,0.253-0.221,0.379c-9.094,15.808-18.188,31.615-27.282,47.423
		c-1.521,2.644-3.843,6.484-4.645,9.428c-1.775,6.516,1.219,13.78,6.223,18.015c4.331,3.666,11.436,4.268,16.533,1.852
		c1.836-0.87,3.764-2.391,4.864-4.102c1.605-2.497,2.263-3.781,3.117-5.818c7.337-17.511,14.674-35.022,22.011-52.533
		c0.811-1.937,1.64-3.988,1.371-6.071c-0.274-2.126-1.661-3.948-3.229-5.406c-3.954-3.678-9.409-5.683-14.798-5.439
		c-0.889,0.04-1.816,0.152-2.557,0.646C33.45,184.089,33.035,184.693,32.664,185.316z" style="opacity: 1;"></path>
	<path class="st10" d="M36.431,181.211l-0.907,1.657c-0.426,0.779-0.573,1.694-0.333,2.55c0.472,1.685,1.889,4.424,6.126,6.335
		c3.834,1.729,8.108,3.363,10.09,3.518c1.307,0.102,2.548-0.577,3.226-1.702l0.959-1.591c1.026-1.702-0.417-4.971-1.939-6.247
		c-1.461-1.226-3.562-2.741-6.301-4.114c-2.69-1.348-4.935-2.044-6.579-2.403C39.042,178.837,37.283,179.653,36.431,181.211z" style="opacity: 1;"></path>
	<path class="st7" d="M41.305,173.699c0-3.165-1.838-23.621-1.584-27.014c0.299-4.007,5.133-9.458,5.922-10.645
		c0.789-1.187,8.684-8.703,11.053-8.703c1.95,0,7.391,1.622,9.291,2.034c0.901,0.195,0.357,1.116,0.357,1.116
		c-0.438,1.464-1.824,2.432-3.346,2.339l-5.792-0.355l-3.424,3.947l0.759,0.858l4.11,0.693c2.519,0.425,4.656,2.09,5.687,4.432
		l0.917,2.082l-0.105,4.648c-0.041,1.792-1.045,3.422-2.626,4.26l-0.351,0.186c0,0,1.541,11.497,0.171,14.415
		s-5.65,11.841-5.65,11.841l-2.935,6.101c-0.544,1.13-1.689,1.83-2.94,1.8c-3.491-0.081-10.288-1.141-12.295-7.93L41.305,173.699z" style="opacity: 1;"></path>
	<path class="st11" d="M145.216,170.057c-4.703,8.457-9.822,23.292-10.9,27.922c-1.411,5.934-13.557,67.711-13.557,67.711
		c-2.24,1.248-49.633-15.638-64.102-20.851c1.522-1.608,3.32-2.994,5.035-2.467l56.743,18.938c0,0,10.07-55.261,13.695-67.129
		C135.975,181.564,139.849,173.578,145.216,170.057z" style="opacity: 1;"></path>
	<path class="st12" d="M60.465,48.315c4.685-7.826,15.618-9.391,21.865,0c6.247,9.391,9.371,19.566,27.331,21.913l1.709,13.744
		c0,0,8.592-14.034,12.73-12.758c4.137,1.276,3.501,15.309-3.182,19.775c0,0,0,12.758,0,11.801c0-0.957,11.775-33.17,14.321-36.041
		s7.638-8.93,8.274-18.18s-4.407-32.732-26.047-38.154c-1.273-0.638-8.07-16.176-41.818-8.088
		c-11.022,2.642-17.608,13.97-30.08,21.323c-17.608,3.676-13.939,25,1.837,33.212C54.087,57.819,60.465,48.315,60.465,48.315z" style="opacity: 1;"></path>
</g>
</svg>
